<svg width="24" height="24" viewBox="0 0 24 24" fill="none" xmlns="http://www.w3.org/2000/svg">
<mask id="mask0_115_1763" style="mask-type:alpha" maskUnits="userSpaceOnUse" x="0" y="0" width="24" height="24">
<rect width="24" height="24" fill="#D9D9D9"/>
</mask>
<g mask="url(#mask0_115_1763)">
<path d="M3.25 20.5C3.0375 20.5 2.85942 20.4281 2.71575 20.2843C2.57192 20.1404 2.5 19.9622 2.5 19.7498C2.5 19.5371 2.57192 19.359 2.71575 19.2155C2.85942 19.0718 3.0375 19 3.25 19H20.75C20.9625 19 21.1406 19.0719 21.2843 19.2158C21.4281 19.3596 21.5 19.5378 21.5 19.7502C21.5 19.9629 21.4281 20.141 21.2843 20.2845C21.1406 20.4282 20.9625 20.5 20.75 20.5H3.25ZM4.75125 17.6152C4.40425 17.6152 4.109 17.4938 3.8655 17.2508C3.62183 17.0078 3.5 16.7126 3.5 16.3652V12.75C3.5 12.4028 3.62142 12.1077 3.86425 11.8645C4.10708 11.6215 4.402 11.5 4.749 11.5C5.09583 11.5 5.391 11.6215 5.6345 11.8645C5.87817 12.1077 6 12.4028 6 12.75V16.3652C6 16.7126 5.87858 17.0078 5.63575 17.2508C5.39292 17.4938 5.09808 17.6152 4.75125 17.6152ZM9.578 17.6152C9.23117 17.6152 8.93592 17.4938 8.69225 17.2508C8.44875 17.0078 8.327 16.7126 8.327 16.3652V7.75C8.327 7.40283 8.44842 7.10767 8.69125 6.8645C8.93408 6.6215 9.22892 6.5 9.57575 6.5C9.92275 6.5 10.218 6.6215 10.4615 6.8645C10.7052 7.10767 10.827 7.40283 10.827 7.75V16.3652C10.827 16.7126 10.7056 17.0078 10.4628 17.2508C10.2199 17.4938 9.925 17.6152 9.578 17.6152ZM14.4145 17.6152C14.0677 17.6152 13.7724 17.4938 13.5288 17.2508C13.2853 17.0078 13.1635 16.7126 13.1635 16.3652V10.75C13.1635 10.4028 13.2849 10.1077 13.5278 9.8645C13.7706 9.6215 14.0654 9.5 14.4122 9.5C14.7592 9.5 15.0545 9.6215 15.298 9.8645C15.5417 10.1077 15.6635 10.4028 15.6635 10.75V16.3652C15.6635 16.7126 15.5421 17.0078 15.2992 17.2508C15.0564 17.4938 14.7615 17.6152 14.4145 17.6152ZM19.251 17.6152C18.9042 17.6152 18.609 17.4938 18.3655 17.2508C18.1218 17.0078 18 16.7126 18 16.3652V4.75C18 4.40283 18.1214 4.10767 18.3643 3.8645C18.6071 3.6215 18.9019 3.5 19.2488 3.5C19.5958 3.5 19.891 3.6215 20.1345 3.8645C20.3782 4.10767 20.5 4.40283 20.5 4.75V16.3652C20.5 16.7126 20.3786 17.0078 20.1357 17.2508C19.8929 17.4938 19.598 17.6152 19.251 17.6152Z" fill="#1C1B1F"/>
</g>
</svg>
