<svg width="24" height="24" viewBox="0 0 24 24" fill="none" xmlns="http://www.w3.org/2000/svg">
<mask id="mask0_115_1576" style="mask-type:alpha" maskUnits="userSpaceOnUse" x="0" y="0" width="24" height="24">
<rect width="24" height="24" fill="#D9D9D9"/>
</mask>
<g mask="url(#mask0_115_1576)">
<path d="M7.227 11.9983C7.227 12.1622 7.21708 12.3314 7.19725 12.5058C7.17725 12.6801 7.15058 12.8487 7.11725 13.0115C7.07375 13.2243 7.0975 13.4278 7.1885 13.622C7.2795 13.8163 7.42625 13.9538 7.62875 14.0345C7.82492 14.109 8.01183 14.1023 8.1895 14.0145C8.367 13.9267 8.48267 13.7847 8.5365 13.5885C8.59683 13.3347 8.64367 13.0725 8.677 12.802C8.71033 12.5315 8.727 12.2642 8.727 12C8.727 11.7358 8.71033 11.4685 8.677 11.198C8.64367 10.9275 8.59683 10.6653 8.5365 10.4115C8.48267 10.2153 8.367 10.0733 8.1895 9.9855C8.01183 9.89767 7.82492 9.891 7.62875 9.9655C7.42625 10.0462 7.2795 10.1837 7.1885 10.378C7.0975 10.5722 7.07375 10.7757 7.11725 10.9885C7.15058 11.1513 7.17725 11.3193 7.19725 11.4925C7.21708 11.6657 7.227 11.8343 7.227 11.9983ZM10.727 12C10.727 12.4128 10.7004 12.8205 10.6473 13.223C10.5939 13.6257 10.5141 14.0168 10.4078 14.3963C10.3436 14.6091 10.3545 14.81 10.4405 14.999C10.5263 15.1882 10.6617 15.3194 10.8465 15.3927C11.0437 15.4784 11.2397 15.4745 11.4345 15.381C11.6293 15.2875 11.7583 15.1348 11.8212 14.923C11.9644 14.452 12.0678 13.9729 12.1315 13.4858C12.1952 12.9984 12.227 12.503 12.227 11.9995C12.227 11.496 12.1952 11.0007 12.1315 10.5138C12.0678 10.0268 11.9644 9.54783 11.8212 9.077C11.7583 8.86517 11.6293 8.7125 11.4345 8.619C11.2397 8.5255 11.0437 8.52158 10.8465 8.60725C10.6617 8.68058 10.5263 8.81183 10.4405 9.001C10.3545 9.19 10.3436 9.39092 10.4078 9.60375C10.5141 9.98325 10.5939 10.3743 10.6473 10.777C10.7004 11.1795 10.727 11.5872 10.727 12ZM14.227 12C14.227 12.6295 14.1821 13.2497 14.0922 13.8605C14.0026 14.4715 13.8661 15.0667 13.6827 15.6462C13.6186 15.8654 13.6213 16.0767 13.6908 16.2802C13.7603 16.4839 13.896 16.6303 14.098 16.7193C14.2942 16.8039 14.4897 16.8023 14.6845 16.7145C14.8793 16.6268 15.0083 16.4765 15.0712 16.2635C15.2981 15.5827 15.4641 14.8872 15.5693 14.177C15.6744 13.4667 15.727 12.741 15.727 12C15.727 11.259 15.6744 10.5333 15.5693 9.823C15.4641 9.11283 15.2981 8.41733 15.0712 7.7365C15.0083 7.5235 14.8793 7.37317 14.6845 7.2855C14.4897 7.19767 14.2942 7.19608 14.098 7.28075C13.896 7.36975 13.7603 7.51608 13.6908 7.71975C13.6213 7.92325 13.6186 8.13458 13.6827 8.35375C13.8661 8.93325 14.0026 9.5285 14.0922 10.1395C14.1821 10.7503 14.227 11.3705 14.227 12ZM12.0017 21.5C10.6877 21.5 9.45267 21.2507 8.2965 20.752C7.14033 20.2533 6.13467 19.5766 5.2795 18.7218C4.42433 17.8669 3.74725 16.8617 3.24825 15.706C2.74942 14.5503 2.5 13.3156 2.5 12.0017C2.5 10.6877 2.74933 9.45267 3.248 8.2965C3.74667 7.14033 4.42342 6.13467 5.27825 5.2795C6.13308 4.42433 7.13833 3.74725 8.294 3.24825C9.44967 2.74942 10.6844 2.5 11.9983 2.5C13.3123 2.5 14.5473 2.74933 15.7035 3.248C16.8597 3.74667 17.8653 4.42342 18.7205 5.27825C19.5757 6.13308 20.2528 7.13833 20.7518 8.294C21.2506 9.44967 21.5 10.6844 21.5 11.9983C21.5 13.3123 21.2507 14.5473 20.752 15.7035C20.2533 16.8597 19.5766 17.8653 18.7218 18.7205C17.8669 19.5757 16.8617 20.2528 15.706 20.7518C14.5503 21.2506 13.3156 21.5 12.0017 21.5ZM12 20C14.2333 20 16.125 19.225 17.675 17.675C19.225 16.125 20 14.2333 20 12C20 9.76667 19.225 7.875 17.675 6.325C16.125 4.775 14.2333 4 12 4C9.76667 4 7.875 4.775 6.325 6.325C4.775 7.875 4 9.76667 4 12C4 14.2333 4.775 16.125 6.325 17.675C7.875 19.225 9.76667 20 12 20Z" fill="#1C1B1F"/>
</g>
</svg>
