<svg width="24" height="24" viewBox="0 0 24 24" fill="none" xmlns="http://www.w3.org/2000/svg">
<mask id="mask0_115_2958" style="mask-type:alpha" maskUnits="userSpaceOnUse" x="0" y="0" width="24" height="24">
<rect width="24" height="24" fill="#D9D9D9"/>
</mask>
<g mask="url(#mask0_115_2958)">
<path d="M12 15.6845L8.6365 18.25C8.49167 18.3615 8.33817 18.4131 8.176 18.4047C8.01383 18.3964 7.86867 18.3499 7.7405 18.2652C7.61233 18.1807 7.51358 18.0625 7.44425 17.9105C7.37508 17.7587 7.3725 17.5949 7.4365 17.4192L8.727 13.2077L5.477 10.8827C5.32183 10.7814 5.22408 10.6497 5.18375 10.4875C5.14342 10.3253 5.15017 10.1718 5.204 10.027C5.25783 9.88217 5.34725 9.75808 5.47225 9.65475C5.59725 9.55158 5.74758 9.5 5.92325 9.5H9.9655L11.2808 5.1615C11.3449 4.986 11.4421 4.85016 11.5723 4.754C11.7023 4.65783 11.8448 4.60975 12 4.60975C12.1552 4.60975 12.2977 4.65783 12.4277 4.754C12.5579 4.85016 12.6551 4.986 12.7192 5.1615L14.0345 9.5H18.0768C18.2524 9.5 18.4028 9.55158 18.5278 9.65475C18.6528 9.75808 18.7422 9.88217 18.796 10.027C18.8498 10.1718 18.8566 10.3253 18.8163 10.4875C18.7759 10.6497 18.6782 10.7814 18.523 10.8827L15.273 13.2077L16.5635 17.4192C16.6275 17.5949 16.6249 17.7587 16.5557 17.9105C16.4864 18.0625 16.3877 18.1807 16.2595 18.2652C16.1313 18.3499 15.9862 18.3964 15.824 18.4047C15.6618 18.4131 15.5083 18.3615 15.3635 18.25L12 15.6845Z" fill="#1C1B1F"/>
</g>
</svg>
