<svg width="24" height="24" viewBox="0 0 24 24" fill="none" xmlns="http://www.w3.org/2000/svg">
<mask id="mask0_241_1509" style="mask-type:alpha" maskUnits="userSpaceOnUse" x="0" y="0" width="24" height="24">
<rect width="24" height="24" fill="#D9D9D9"/>
</mask>
<g mask="url(#mask0_241_1509)">
<path d="M14.877 8.623C15.2833 9.0295 15.5974 9.52341 15.8192 10.1047C16.041 10.6862 16.125 11.2699 16.071 11.8557C16.071 12.0481 16.0018 12.2109 15.8635 12.3442C15.725 12.4776 15.5595 12.5442 15.3672 12.5442C15.1749 12.5442 15.012 12.4776 14.8787 12.3442C14.7454 12.2109 14.6787 12.0481 14.6787 11.8557C14.7429 11.4161 14.7067 10.9994 14.5702 10.6057C14.4337 10.2122 14.2238 9.87383 13.9405 9.5905C13.6571 9.30716 13.3155 9.09208 12.9155 8.94525C12.5155 8.79841 12.0936 8.76025 11.65 8.83075C11.4576 8.83725 11.2916 8.77283 11.152 8.6375C11.0121 8.50233 10.939 8.33858 10.9327 8.14625C10.9262 7.95391 10.988 7.78783 11.1182 7.648C11.2484 7.50833 11.4096 7.43533 11.602 7.429C12.184 7.36233 12.7689 7.43825 13.3567 7.65675C13.9445 7.87541 14.4513 8.1975 14.877 8.623ZM12 6C11.6448 6 11.2964 6.01733 10.9547 6.052C10.613 6.0865 10.273 6.1435 9.93445 6.223C9.72162 6.26666 9.52995 6.23625 9.35945 6.13175C9.18895 6.02725 9.0717 5.87691 9.0077 5.68075C8.94354 5.47825 8.9647 5.28566 9.0712 5.103C9.17754 4.92033 9.33195 4.80716 9.53445 4.7635C9.93712 4.66733 10.3439 4.59941 10.7547 4.55975C11.1657 4.51991 11.5808 4.5 12 4.5C14.1486 4.5 16.1224 5.05833 17.9212 6.175C19.7199 7.29166 21.1031 8.80258 22.071 10.7077C22.1376 10.8346 22.186 10.9624 22.2162 11.0912C22.2464 11.2201 22.2615 11.3563 22.2615 11.5C22.2615 11.6437 22.249 11.7799 22.224 11.9087C22.199 12.0376 22.1531 12.1654 22.0865 12.2922C21.7801 12.9332 21.4077 13.531 20.9692 14.0855C20.5307 14.64 20.048 15.1493 19.521 15.6135C19.366 15.752 19.1888 15.8093 18.9895 15.7855C18.79 15.7618 18.6261 15.6622 18.498 15.4865C18.3698 15.3108 18.3166 15.1224 18.3385 14.9212C18.3603 14.7199 18.4487 14.55 18.6037 14.4115C19.055 14.0025 19.4666 13.5554 19.8385 13.0702C20.2103 12.5849 20.5308 12.0615 20.8 11.5C19.9666 9.81666 18.7625 8.47916 17.1875 7.4875C15.6125 6.49583 13.8833 6 12 6ZM12 18.5C9.89479 18.5 7.96529 17.9375 6.21145 16.8125C4.45762 15.6875 3.06345 14.2057 2.02895 12.3672C1.94562 12.2404 1.8847 12.1026 1.8462 11.9537C1.8077 11.8051 1.78845 11.6538 1.78845 11.5C1.78845 11.3462 1.80512 11.1974 1.83845 11.0537C1.87179 10.9102 1.93012 10.7699 2.01345 10.6327C2.38529 9.95325 2.80645 9.30608 3.27695 8.69125C3.74745 8.07658 4.28845 7.52566 4.89995 7.0385L2.6422 4.76525C2.50387 4.61658 2.43562 4.44 2.43745 4.2355C2.43945 4.031 2.51287 3.85633 2.6577 3.7115C2.80254 3.56666 2.9782 3.49425 3.1847 3.49425C3.39104 3.49425 3.56662 3.56666 3.71145 3.7115L20.2885 20.2885C20.427 20.427 20.5004 20.5984 20.5087 20.8027C20.517 21.0072 20.4436 21.1871 20.2885 21.3422C20.1436 21.4871 19.968 21.5595 19.7615 21.5595C19.5551 21.5595 19.3795 21.4871 19.2347 21.3422L15.7155 17.8537C15.1256 18.0819 14.5195 18.2467 13.897 18.348C13.2746 18.4493 12.6423 18.5 12 18.5ZM5.95395 8.09225C5.36795 8.54491 4.84129 9.05675 4.37395 9.62775C3.90662 10.1989 3.51529 10.823 3.19995 11.5C4.03329 13.1833 5.23745 14.5208 6.81245 15.5125C8.38745 16.5042 10.1166 17 12 17C12.4295 17 12.8522 16.9712 13.2682 16.9135C13.6842 16.8558 14.0974 16.7667 14.5077 16.6462L13.2422 15.35C13.0397 15.4385 12.8375 15.4984 12.6355 15.5297C12.4336 15.5612 12.2218 15.577 12 15.577C10.8653 15.577 9.90212 15.1812 9.11045 14.3895C8.31879 13.5978 7.92295 12.6347 7.92295 11.5C7.92295 11.2782 7.94029 11.0663 7.97495 10.8645C8.00962 10.6625 8.06795 10.4602 8.14995 10.2577L5.95395 8.09225Z" fill="black"/>
</g>
</svg>
