<svg width="24" height="24" viewBox="0 0 24 24" fill="none" xmlns="http://www.w3.org/2000/svg">
<mask id="mask0_22_204" style="mask-type:alpha" maskUnits="userSpaceOnUse" x="0" y="0" width="24" height="24">
<rect width="24" height="24" fill="#D9D9D9"/>
</mask>
<g mask="url(#mask0_22_204)">
<path d="M7.37301 12.75L12.5423 17.9193C12.6909 18.0679 12.7643 18.2419 12.7625 18.4413C12.7605 18.6406 12.682 18.8178 12.527 18.973C12.3718 19.1178 12.1962 19.1928 12 19.198C11.8038 19.2032 11.6282 19.1282 11.473 18.973L5.13276 12.6328C5.0391 12.5391 4.9731 12.4403 4.93476 12.3365C4.89626 12.2327 4.87701 12.1205 4.87701 12C4.87701 11.8795 4.89626 11.7673 4.93476 11.6635C4.9731 11.5597 5.0391 11.4609 5.13276 11.3673L11.473 5.027C11.6115 4.8885 11.783 4.81767 11.9875 4.8145C12.192 4.81133 12.3718 4.88217 12.527 5.027C12.682 5.18217 12.7595 5.36033 12.7595 5.5615C12.7595 5.76283 12.682 5.94108 12.527 6.09625L7.37301 11.25H18.75C18.9628 11.25 19.141 11.3218 19.2845 11.4655C19.4282 11.609 19.5 11.7872 19.5 12C19.5 12.2128 19.4282 12.391 19.2845 12.5345C19.141 12.6782 18.9628 12.75 18.75 12.75H7.37301Z" fill="black"/>
</g>
</svg>
