<svg width="24" height="24" viewBox="0 0 24 24" fill="none" xmlns="http://www.w3.org/2000/svg">
<mask id="mask0_115_2951" style="mask-type:alpha" maskUnits="userSpaceOnUse" x="0" y="0" width="24" height="24">
<rect width="24" height="24" fill="#D9D9D9"/>
</mask>
<g mask="url(#mask0_115_2951)">
<path d="M8.85001 16.825L12 14.925L15.15 16.85L14.325 13.25L17.1 10.85L13.45 10.525L12 7.125L10.55 10.5L6.90001 10.825L9.67501 13.25L8.85001 16.825ZM12 16.6885L8.10976 19.0345C7.96476 19.1192 7.81951 19.1548 7.67401 19.1413C7.52851 19.1278 7.39684 19.0788 7.27901 18.9943C7.16101 18.9096 7.06993 18.799 7.00576 18.6625C6.94176 18.526 6.93151 18.375 6.97501 18.2095L8.00776 13.7923L4.57326 10.8193C4.44493 10.7078 4.36318 10.5786 4.32801 10.4318C4.29268 10.2849 4.30193 10.1423 4.35576 10.0038C4.40959 9.86542 4.48718 9.75234 4.58851 9.6645C4.68984 9.57667 4.82834 9.51925 5.00401 9.49225L9.53651 9.09625L11.2963 4.925C11.3603 4.76984 11.4573 4.65509 11.5875 4.58075C11.7177 4.50642 11.8552 4.46925 12 4.46925C12.1448 4.46925 12.2823 4.50642 12.4125 4.58075C12.5427 4.65509 12.6398 4.76984 12.7038 4.925L14.4635 9.09625L18.996 9.49225C19.1717 9.51925 19.3102 9.57667 19.4115 9.6645C19.5128 9.75234 19.5904 9.86542 19.6443 10.0038C19.6981 10.1423 19.7073 10.2849 19.672 10.4318C19.6368 10.5786 19.5551 10.7078 19.4268 10.8193L15.9923 13.7923L17.025 18.2095C17.0685 18.375 17.0583 18.526 16.9943 18.6625C16.9301 18.799 16.839 18.9096 16.721 18.9943C16.6032 19.0788 16.4715 19.1278 16.326 19.1413C16.1805 19.1548 16.0353 19.1192 15.8903 19.0345L12 16.6885Z" fill="#1C1B1F"/>
</g>
</svg>
