<svg width="24" height="24" viewBox="0 0 24 24" fill="none" xmlns="http://www.w3.org/2000/svg">
<mask id="mask0_115_703" style="mask-type:alpha" maskUnits="userSpaceOnUse" x="0" y="0" width="24" height="24">
<rect width="24" height="24" fill="#D9D9D9"/>
</mask>
<g mask="url(#mask0_115_703)">
<path d="M5.92272 19.75C5.71006 19.75 5.53197 19.6781 5.38847 19.5343C5.24481 19.3906 5.17297 19.2125 5.17297 19V12.6923H3.92297C3.71047 12.6923 3.53239 12.6203 3.38872 12.4765C3.24489 12.3327 3.17297 12.1545 3.17297 11.942C3.17297 11.7293 3.24489 11.5512 3.38872 11.4078C3.53239 11.2641 3.71047 11.1923 3.92297 11.1923H7.92297C8.13547 11.1923 8.31364 11.2642 8.45747 11.408C8.60114 11.5518 8.67297 11.7301 8.67297 11.9427C8.67297 12.1553 8.60114 12.3333 8.45747 12.477C8.31364 12.6205 8.13547 12.6923 7.92297 12.6923H6.67297V19C6.67297 19.2125 6.60106 19.3906 6.45722 19.5343C6.31339 19.6781 6.13522 19.75 5.92272 19.75ZM5.92272 8.80775C5.71006 8.80775 5.53197 8.73583 5.38847 8.592C5.24481 8.44833 5.17297 8.27025 5.17297 8.05775V5C5.17297 4.7875 5.24489 4.60942 5.38872 4.46575C5.53256 4.32192 5.71081 4.25 5.92347 4.25C6.13597 4.25 6.31406 4.32192 6.45772 4.46575C6.60122 4.60942 6.67297 4.7875 6.67297 5V8.05775C6.67297 8.27025 6.60106 8.44833 6.45722 8.592C6.31339 8.73583 6.13522 8.80775 5.92272 8.80775ZM9.99997 8.80775C9.78747 8.80775 9.60939 8.73583 9.46572 8.592C9.32189 8.44817 9.24997 8.26992 9.24997 8.05725C9.24997 7.84475 9.32189 7.66667 9.46572 7.523C9.60939 7.3795 9.78747 7.30775 9.99997 7.30775H11.25V5C11.25 4.7875 11.3219 4.60942 11.4657 4.46575C11.6096 4.32192 11.7877 4.25 12.0002 4.25C12.2129 4.25 12.391 4.32192 12.5345 4.46575C12.6781 4.60942 12.75 4.7875 12.75 5V7.30775H14C14.2125 7.30775 14.3906 7.37967 14.5342 7.5235C14.6781 7.66733 14.75 7.8455 14.75 8.058C14.75 8.27067 14.6781 8.44875 14.5342 8.59225C14.3906 8.73592 14.2125 8.80775 14 8.80775H9.99997ZM11.9997 19.75C11.7871 19.75 11.609 19.6781 11.4655 19.5343C11.3218 19.3906 11.25 19.2125 11.25 19V11.9423C11.25 11.7298 11.3219 11.5517 11.4657 11.408C11.6096 11.2642 11.7877 11.1923 12.0002 11.1923C12.2129 11.1923 12.391 11.2642 12.5345 11.408C12.6781 11.5517 12.75 11.7298 12.75 11.9423V19C12.75 19.2125 12.6781 19.3906 12.5342 19.5343C12.3904 19.6781 12.2122 19.75 11.9997 19.75ZM18.0765 19.75C17.864 19.75 17.6859 19.6781 17.5422 19.5343C17.3987 19.3906 17.327 19.2125 17.327 19V16.6923H16.077C15.8645 16.6923 15.6863 16.6203 15.5425 16.4765C15.3988 16.3327 15.327 16.1545 15.327 15.942C15.327 15.7293 15.3988 15.5513 15.5425 15.4078C15.6863 15.2641 15.8645 15.1923 16.077 15.1923H20.077C20.2895 15.1923 20.4676 15.2642 20.6112 15.408C20.7551 15.5518 20.827 15.7301 20.827 15.9427C20.827 16.1552 20.7551 16.3333 20.6112 16.477C20.4676 16.6205 20.2895 16.6923 20.077 16.6923H18.827V19C18.827 19.2125 18.7551 19.3906 18.6112 19.5343C18.4674 19.6781 18.2891 19.75 18.0765 19.75ZM18.0765 12.8077C17.864 12.8077 17.6859 12.7358 17.5422 12.592C17.3987 12.4483 17.327 12.2703 17.327 12.0578V5C17.327 4.7875 17.3989 4.60942 17.5427 4.46575C17.6866 4.32192 17.8647 4.25 18.0772 4.25C18.2899 4.25 18.468 4.32192 18.6115 4.46575C18.7551 4.60942 18.827 4.7875 18.827 5V12.0578C18.827 12.2703 18.7551 12.4483 18.6112 12.592C18.4674 12.7358 18.2891 12.8077 18.0765 12.8077Z" fill="#1C1B1F"/>
</g>
</svg>
