<svg width="24" height="24" viewBox="0 0 24 24" fill="none" xmlns="http://www.w3.org/2000/svg">
<mask id="mask0_22_121" style="mask-type:alpha" maskUnits="userSpaceOnUse" x="0" y="0" width="24" height="24">
<path d="M9.34486 3.2501C9.34486 2.75304 9.74781 2.3501 10.2449 2.3501H13.7423C14.2393 2.3501 14.6423 2.75304 14.6423 3.2501C14.6423 3.74715 14.2393 4.1501 13.7423 4.1501H10.2449C9.74781 4.1501 9.34486 3.74715 9.34486 3.2501Z" fill="#171719"/>
<path d="M7.64704 3.23579C7.6621 3.73262 7.27154 4.14758 6.77471 4.16264C5.91791 4.1886 5.56099 4.25649 5.30674 4.38724L5.29764 4.39192C4.91177 4.58486 4.59075 4.90691 4.37296 5.32224C4.24304 5.57633 4.17551 5.93372 4.14963 6.78772C4.13458 7.28455 3.71961 7.6751 3.22278 7.66005C2.72596 7.64499 2.3354 7.23003 2.35046 6.7332C2.37631 5.88016 2.43796 5.149 2.77352 4.49652L2.77626 4.49119C3.15355 3.76941 3.73717 3.16088 4.48817 2.78414C5.13947 2.45067 5.86918 2.38925 6.72019 2.36346C7.21702 2.34841 7.63199 2.73896 7.64704 3.23579Z" fill="#171719"/>
<path d="M16.3401 3.23579C16.3552 2.73896 16.7701 2.34841 17.2669 2.36346C18.118 2.38925 18.8477 2.45067 19.499 2.78413C20.25 3.16088 20.8336 3.76942 21.2109 4.4912L21.2136 4.49651C21.5492 5.14899 21.6108 5.88016 21.6367 6.7332C21.6517 7.23003 21.2612 7.64499 20.7643 7.66005C20.2675 7.6751 19.8526 7.28455 19.8375 6.78772C19.8116 5.93372 19.7441 5.57634 19.6142 5.32225C19.3964 4.90691 19.0754 4.58481 18.6895 4.39187L18.6804 4.3873C18.4261 4.25654 18.0692 4.1886 17.2124 4.16264C16.7156 4.14758 16.325 3.73262 16.3401 3.23579Z" fill="#171719"/>
<path d="M3.25004 9.34492C3.7471 9.34492 4.15004 9.74786 4.15004 10.2449V13.7423C4.15004 14.2394 3.7471 14.6423 3.25004 14.6423C2.75299 14.6423 2.35004 14.2394 2.35004 13.7423V10.2449C2.35004 9.74786 2.75299 9.34492 3.25004 9.34492Z" fill="#171719"/>
<path d="M20.7371 9.34492C21.2341 9.34492 21.6371 9.74786 21.6371 10.2449V13.7423C21.6371 14.2394 21.2341 14.6423 20.7371 14.6423C20.24 14.6423 19.8371 14.2394 19.8371 13.7423V10.2449C19.8371 9.74786 20.24 9.34492 20.7371 9.34492Z" fill="#171719"/>
<path d="M20.7773 16.3401C21.2741 16.3552 21.6647 16.7702 21.6496 17.267C21.6238 18.12 21.5621 18.8512 21.2266 19.5037L21.2238 19.509C20.8465 20.2308 20.2628 20.8394 19.5117 21.2161C18.8605 21.5495 18.1308 21.6109 17.2799 21.6367C16.7831 21.6518 16.3681 21.2612 16.353 20.7644C16.338 20.2676 16.7285 19.8526 17.2254 19.8376C18.0822 19.8116 18.4391 19.7437 18.6934 19.6129L18.7024 19.6083C19.0883 19.4153 19.4093 19.0933 19.6271 18.6779C19.7571 18.4239 19.8246 18.0665 19.8505 17.2125C19.8655 16.7156 20.2805 16.3251 20.7773 16.3401Z" fill="#171719"/>
<path d="M3.22278 16.3531C3.71961 16.338 4.13458 16.7286 4.14963 17.2254C4.1756 18.0822 4.24348 18.4392 4.37424 18.6934L4.37892 18.7025C4.57185 19.0884 4.89391 19.4094 5.30924 19.6272C5.56334 19.7571 5.92071 19.8246 6.77471 19.8505C7.27154 19.8656 7.6621 20.2805 7.64704 20.7774C7.63199 21.2742 7.21702 21.6647 6.72019 21.6497C5.86715 21.6238 5.13599 21.5622 4.48351 21.2266L4.47819 21.2239C3.75642 20.8466 3.14787 20.263 2.77113 19.512C2.43766 18.8607 2.37625 18.131 2.35046 17.2799C2.3354 16.7831 2.72596 16.3682 3.22278 16.3531Z" fill="#171719"/>
<path d="M9.34486 20.7371C9.34486 20.2401 9.74781 19.8371 10.2449 19.8371H13.7423C14.2393 19.8371 14.6423 20.2401 14.6423 20.7371C14.6423 21.2342 14.2393 21.6371 13.7423 21.6371H10.2449C9.74781 21.6371 9.34486 21.2342 9.34486 20.7371Z" fill="#171719"/>
</mask>
<g mask="url(#mask0_22_121)">
<rect width="23.9999" height="24" fill="black"/>
</g>
</svg>
