<svg width="24" height="24" viewBox="0 0 24 24" fill="none" xmlns="http://www.w3.org/2000/svg">
<mask id="mask0_115_617" style="mask-type:alpha" maskUnits="userSpaceOnUse" x="0" y="0" width="24" height="24">
<rect width="24" height="24" fill="#D9D9D9"/>
</mask>
<g mask="url(#mask0_115_617)">
<path d="M6.30775 20.5C5.81058 20.5 5.385 20.323 5.031 19.969C4.677 19.615 4.5 19.1894 4.5 18.6923V10.1538C4.5 9.86759 4.564 9.5965 4.692 9.3405C4.82017 9.08434 4.99717 8.87342 5.223 8.70775L10.9155 4.429C11.2313 4.18784 11.5923 4.06725 11.9985 4.06725C12.4047 4.06725 12.7667 4.18784 13.0845 4.429L18.777 8.70775C19.0028 8.87342 19.1798 9.08434 19.308 9.3405C19.436 9.5965 19.5 9.86759 19.5 10.1538V18.6923C19.5 19.1894 19.323 19.615 18.969 19.969C18.615 20.323 18.1894 20.5 17.6923 20.5H6.30775ZM6.30775 19H17.6923C17.7821 19 17.8558 18.9712 17.9135 18.9135C17.9712 18.8558 18 18.7821 18 18.6923V10.1538C18 10.1026 17.9888 10.0562 17.9663 10.0145C17.9439 9.97284 17.9135 9.93592 17.875 9.90375L12.1828 5.63475C12.1314 5.58975 12.0705 5.56725 12 5.56725C11.9295 5.56725 11.8686 5.58975 11.8173 5.63475L6.125 9.90375C6.0865 9.93592 6.05608 9.97284 6.03375 10.0145C6.01125 10.0562 6 10.1026 6 10.1538V18.6923C6 18.7821 6.02883 18.8558 6.0865 18.9135C6.14417 18.9712 6.21792 19 6.30775 19ZM10.6155 17.673C10.7423 17.673 10.8509 17.6278 10.9412 17.5375C11.0317 17.4472 11.077 17.3385 11.077 17.2115V13.9808C11.4615 13.9808 11.7884 13.8462 12.0578 13.577C12.3269 13.3077 12.4615 12.9808 12.4615 12.5963V10.2885C12.4615 10.1615 12.4163 10.0528 12.326 9.9625C12.2357 9.87217 12.127 9.827 12 9.827C11.873 9.827 11.7643 9.87217 11.674 9.9625C11.5837 10.0528 11.5385 10.1615 11.5385 10.2885V12.5963H11.077V10.2885C11.077 10.1615 11.0317 10.0528 10.9412 9.9625C10.8509 9.87217 10.7423 9.827 10.6155 9.827C10.4885 9.827 10.3798 9.87217 10.2895 9.9625C10.199 10.0528 10.1537 10.1615 10.1537 10.2885V12.5963H9.69225V10.2885C9.69225 10.1615 9.64708 10.0528 9.55675 9.9625C9.46642 9.87217 9.35775 9.827 9.23075 9.827C9.10392 9.827 8.99525 9.87217 8.90475 9.9625C8.81442 10.0528 8.76925 10.1615 8.76925 10.2885V12.5963C8.76925 12.9808 8.90383 13.3077 9.173 13.577C9.44233 13.8462 9.76925 13.9808 10.1537 13.9808V17.2115C10.1537 17.3385 10.199 17.4472 10.2895 17.5375C10.3798 17.6278 10.4885 17.673 10.6155 17.673ZM14.3077 17.673C14.4346 17.673 14.5433 17.6278 14.6337 17.5375C14.7241 17.4472 14.7693 17.3385 14.7693 17.2115V10.427C14.7693 10.2577 14.7113 10.1153 14.5953 10C14.4794 9.88467 14.3365 9.827 14.1665 9.827C13.749 9.827 13.4374 10.0193 13.2318 10.4038C13.0259 10.7884 12.923 11.2115 12.923 11.673V13.5368C12.923 13.7853 13.0246 13.9701 13.2277 14.0913C13.4311 14.2124 13.6308 14.3294 13.827 14.4423H13.8462V17.2115C13.8462 17.3385 13.8914 17.4472 13.9818 17.5375C14.0721 17.6278 14.1807 17.673 14.3077 17.673Z" fill="#1C1B1F"/>
</g>
</svg>
